#!OML:ASF E:\VariousWalksJay\Project 1\Capture day 1\Session 1\Actor2.ASF
:FULLY-SPECIFIED
:DEGREES
923
root -9.51893 13.5073 32.6228 8.71787 -40.8474 -3.29571
lowerback 41.8044 -3.29018 5.70585
upperback 17.5078 -3.10789 -1.16147
thorax -0.578839 -1.55389 -3.04672
lowerneck 2.67027 2.16027 6.92883
upperneck -25.3511 2.52475 -4.52436
head -8.09772 0.837977 -2.87152
rclavicle -5.00937e-014 -3.93594e-014
rhumerus -6.22507 30.2827 -74.4067
rradius 108.191
rwrist -6.46497
rhand -31.6229 -16.6442
rfingers 7.12502
rthumb -4.88462 -46.5679
lclavicle -5.00937e-014 -3.93594e-014
lhumerus 60.232 -5.89771 39.116
lradius 74.6791
lwrist 52.5512
lhand -27.2158 13.0237
lfingers 7.12502
lthumb -0.628481 43.0026
rfemur -51.9991 3.25952 31.619
rtibia 90.4881
rfoot -37.2362 -15.3098
rtoes -15.9873
lfemur -86.5577 7.57582 -18.7618
ltibia 78.5955
lfoot -17.0981 3.61603
ltoes -23.0329
924
root -9.5348 13.4089 32.6717 8.79195 -41.0371 -3.32194
lowerback 42.0827 -3.21126 5.68546
upperback 17.5329 -3.01433 -1.11447
thorax -0.615035 -1.51667 -3.01175
lowerneck 2.78728 2.16507 6.91934
upperneck -25.6359 2.50902 -4.63324
head -8.2142 0.83479 -2.91439
rclavicle 1.78906e-014 2.8625e-014
rhumerus -4.44316 30.2633 -73.5481
rradius 108.576
rwrist -6.78065
rhand -31.4148 -17.3598
rfingers 7.12502
rthumb -4.68372 -47.288
lclavicle 1.78906e-014 2.8625e-014
lhumerus 60.9962 -4.69877 39.3103
lradius 74.0297
lwrist 52.9047
lhand -27.1035 13.0774
lfingers 7.12502
lthumb -0.52006 43.0565
rfemur -52.4644 3.43591 31.6702
rtibia 91.6906
rfoot -37.5973 -15.6373
rtoes -16.8056
lfemur -86.0745 7.33897 -18.3106
ltibia 75.0716
lfoot -17.0991 4.09539
ltoes -22.8083
925
root -9.55179 13.3139 32.7226 8.87355 -41.2415 -3.33964
lowerback 42.3444 -3.12965 5.65924
upperback 17.5582 -2.92182 -1.08007
thorax -0.646966 -1.47945 -2.98766
lowerneck 2.89566 2.17394 6.89712
upperneck -25.9086 2.50119 -4.72321
head -8.32563 0.835251 -2.94909
rclavicle -1.39149e-014 -1.72943e-014
rhumerus -2.7159 30.2211 -72.7204
rradius 108.927
rwrist -7.09394
rhand -31.2183 -18.0336
rfingers 7.12502
rthumb -4.49396 -47.966
lclavicle -1.39149e-014 -1.72943e-014
lhumerus 61.7348 -3.55676 39.5158
lradius 73.3903
lwrist 53.2576
lhand -27.0165 13.1082
lfingers 7.12502
lthumb -0.435999 43.0875
rfemur -52.9167 3.62501 31.706
rtibia 92.8629
rfoot -37.9184 -15.9574
rtoes -17.6616
lfemur -85.5044 7.13136 -17.8229
ltibia 71.5536
lfoot -17.0708 4.57415
ltoes -22.5516
926
root -9.56997 13.2225 32.7759 8.95409 -41.4545 -3.34134
lowerback 42.5907 -3.04742 5.62692
upperback 17.584 -2.83277 -1.05887
thorax -0.674733 -1.44326 -2.97404
lowerneck 2.99443 2.18487 6.8681
upperneck -26.1689 2.49818 -4.79813
head -8.43171 0.837614 -2.97764
rclavicle 3.18055e-015 8.26944e-014
rhumerus -1.05974 30.1561 -71.9272
rradius 109.252
rwrist -7.42374
rhand -31.0276 -18.667
rfingers 7.12502
rthumb -4.30976 -48.6032
lclavicle 3.18055e-015 8.26944e-014
lhumerus 62.4477 -2.47544 39.7228
lradius 72.7708
lwrist 53.6026
lhand -26.948 13.1194
lfingers 7.12502
lthumb -0.369825 43.0989
rfemur -53.3519 3.81954 31.718
rtibia 94.0072
rfoot -38.2031 -16.2611
rtoes -18.5555
lfemur -84.8588 6.9389 -17.3006
ltibia 68.0727
lfoot -17.0016 5.03597
ltoes -22.2843
927
root -9.58941 13.1349 32.8317 9.02695 -41.6691 -3.32286
lowerback 42.823 -2.9683 5.59112
upperback 17.611 -2.75049 -1.05187
thorax -0.698658 -1.40939 -2.97199
lowerneck 3.08322 2.19606 6.8378
upperneck -26.4177 2.49752 -4.86021
head -8.53261 0.840286 -3.0015
rclavicle -2.10712e-014 -1.35174e-014
rhumerus 0.510879 30.0708 -71.1731
rradius 109.556
rwrist -7.78216
rhand -30.8422 -19.2574
rfingers 7.12502
rthumb -4.13072 -49.1971
lclavicle -2.10712e-014 -1.35174e-014
lhumerus 63.1341 -1.4569 39.922
lradius 72.1769
lwrist 53.9257
lhand -26.8855 13.1152
lfingers 7.12502
lthumb -0.309467 43.0947
rfemur -53.7654 4.01258 31.7016
rtibia 95.1243
rfoot -38.456 -16.5409
rtoes -19.4829
lfemur -84.1507 6.74868 -16.7451
ltibia 64.663
lfoot -16.8864 5.46429
ltoes -22.0225
928
root -9.61027 13.0511 32.8903 9.08653 -41.8783 -3.28138
lowerback 43.0425 -2.89635 5.55439
upperback 17.6392 -2.67862 -1.05963
thorax -0.718971 -1.37934 -2.982
lowerneck 3.16473 2.20636 6.80879
upperneck -26.6581 2.49776 -4.91083
head -8.62993 0.84234 -3.02156
rclavicle 3.57812e-015 8.15017e-015
rhumerus 1.98517 29.9699 -70.4615
rradius 109.844
rwrist -8.17266
rhand -30.6655 -19.8042
rfingers 7.12502
rthumb -3.96017 -49.7471
lclavicle 3.57812e-015 8.15017e-015
lhumerus 63.7925 -0.501886 40.1039
lradius 71.6121
lwrist 54.2099
lhand -26.814 13.1009
lfingers 7.12502
lthumb -0.240412 43.0805
rfemur -54.1519 4.19687 31.6533
rtibia 96.2144
rfoot -38.6814 -16.7904
rtoes -20.4387
lfemur -83.3938 6.54952 -16.1601
ltibia 61.36
lfoot -16.7237 5.84758
ltoes -21.7894
